<?xml version="1.0" standalone="no"?>
<!DOCTYPE svg PUBLIC "-//W3C//DTD SVG 20010904//EN"
 "http://www.w3.org/TR/2001/REC-SVG-20010904/DTD/svg10.dtd">
<svg version="1.0" xmlns="http://www.w3.org/2000/svg"
 width="260.000000pt" height="260.000000pt" viewBox="0 0 260.000000 260.000000"
 preserveAspectRatio="xMidYMid meet">
<metadata>
Created by potrace 1.14, written by Peter Selinger 2001-2017
</metadata>
<g transform="translate(0.000000,260.000000) scale(0.100000,-0.100000)"
fill="#000000" stroke="none">
<path d="M0 1300 l0 -1300 1300 0 1300 0 0 1300 0 1300 -1300 0 -1300 0 0
-1300z m1940 822 c65 -48 77 -148 24 -203 -102 -107 -271 -14 -232 128 11 41
57 89 91 96 37 8 90 -1 117 -21z m-420 -72 l0 -90 -340 0 -340 0 0 -275 0
-275 313 -2 312 -3 3 -87 3 -88 -316 0 -315 0 0 -380 0 -380 -110 0 -110 0 0
835 0 835 450 0 450 0 0 -90z m450 -980 l0 -600 -110 0 -110 0 0 600 0 600
110 0 110 0 0 -600z"/>
</g>
</svg>
