<?xml version="1.0" standalone="no"?>
<!DOCTYPE svg PUBLIC "-//W3C//DTD SVG 20010904//EN"
 "http://www.w3.org/TR/2001/REC-SVG-20010904/DTD/svg10.dtd">
<svg version="1.0" xmlns="http://www.w3.org/2000/svg"
 width="700.000000pt" height="700.000000pt" viewBox="0 0 700.000000 700.000000"
 preserveAspectRatio="xMidYMid meet">
<metadata>
Created by potrace 1.14, written by Peter Selinger 2001-2017
</metadata>
<g transform="translate(0.000000,700.000000) scale(0.100000,-0.100000)"
fill="#000000" stroke="none">
<path d="M63 6984 c-69 -34 -63 280 -63 -3484 0 -3077 2 -3405 16 -3435 33
-71 -288 -65 3483 -65 3744 0 3452 -5 3484 63 16 33 17 278 17 3437 0 3159 -1
3404 -17 3437 -32 68 260 63 -3485 63 -3070 0 -3406 -2 -3435 -16z m2591
-1101 c8 -27 200 -678 426 -1448 226 -770 415 -1409 420 -1420 11 -23 570
-1921 570 -1935 0 -6 -265 -10 -714 -10 l-714 0 -20 67 c-91 301 -1394 4741
-1399 4764 l-5 29 710 0 710 0 16 -47z m2049 -1233 l574 -415 -20 -70 c-10
-38 -192 -662 -404 -1385 -212 -723 -411 -1403 -442 -1510 l-57 -195 -69 -3
c-39 -2 -98 0 -132 3 -54 6 -63 9 -63 27 0 11 -33 133 -74 272 -41 138 -118
404 -171 591 -53 187 -146 515 -207 729 -79 278 -109 398 -105 422 6 34 551
1887 572 1942 3 8 9 12 14 10 6 -2 268 -190 584 -418z"/>
</g>
</svg>
