<svg width="55" height="56" viewBox="0 0 55 56" fill="none" xmlns="http://www.w3.org/2000/svg">
<rect width="55" height="55" fill="#BEBEBE"/>
<path d="M23.3281 20.1602V22H14.7969V20.1602H23.3281ZM15.2422 4.9375V22H12.9805V4.9375H15.2422ZM42.4147 12.9297V14.0078C42.4147 15.2891 42.2545 16.4375 41.9342 17.4531C41.6139 18.4688 41.153 19.332 40.5514 20.043C39.9498 20.7539 39.2272 21.2969 38.3834 21.6719C37.5475 22.0469 36.61 22.2344 35.5709 22.2344C34.5631 22.2344 33.6373 22.0469 32.7936 21.6719C31.9577 21.2969 31.2311 20.7539 30.6139 20.043C30.0045 19.332 29.5319 18.4688 29.1959 17.4531C28.86 16.4375 28.692 15.2891 28.692 14.0078V12.9297C28.692 11.6484 28.8561 10.5039 29.1842 9.49609C29.5202 8.48047 29.9928 7.61719 30.6022 6.90625C31.2116 6.1875 31.9342 5.64062 32.7702 5.26562C33.6139 4.89062 34.5397 4.70312 35.5475 4.70312C36.5866 4.70312 37.5241 4.89062 38.36 5.26562C39.2038 5.64062 39.9264 6.1875 40.528 6.90625C41.1373 7.61719 41.6022 8.48047 41.9225 9.49609C42.2506 10.5039 42.4147 11.6484 42.4147 12.9297ZM40.1764 14.0078V12.9062C40.1764 11.8906 40.0709 10.9922 39.86 10.2109C39.6569 9.42969 39.3561 8.77344 38.9577 8.24219C38.5592 7.71094 38.0709 7.30859 37.4928 7.03516C36.9225 6.76172 36.2741 6.625 35.5475 6.625C34.8444 6.625 34.2077 6.76172 33.6373 7.03516C33.0748 7.30859 32.5905 7.71094 32.1842 8.24219C31.7858 8.77344 31.4772 9.42969 31.2584 10.2109C31.0397 10.9922 30.9303 11.8906 30.9303 12.9062V14.0078C30.9303 15.0312 31.0397 15.9375 31.2584 16.7266C31.4772 17.5078 31.7897 18.168 32.1959 18.707C32.61 19.2383 33.0983 19.6406 33.6608 19.9141C34.2311 20.1875 34.8678 20.3242 35.5709 20.3242C36.3053 20.3242 36.9577 20.1875 37.528 19.9141C38.0983 19.6406 38.5788 19.2383 38.9694 18.707C39.3678 18.168 39.6686 17.5078 39.8717 16.7266C40.0748 15.9375 40.1764 15.0312 40.1764 14.0078ZM25.5898 41.5039V47.75C25.3789 48.0625 25.043 48.4141 24.582 48.8047C24.1211 49.1875 23.4844 49.5234 22.6719 49.8125C21.8672 50.0938 20.8281 50.2344 19.5547 50.2344C18.5156 50.2344 17.5586 50.0547 16.6836 49.6953C15.8164 49.3281 15.0625 48.7969 14.4219 48.1016C13.7891 47.3984 13.2969 46.5469 12.9453 45.5469C12.6016 44.5391 12.4297 43.3984 12.4297 42.125V40.8008C12.4297 39.5273 12.5781 38.3906 12.875 37.3906C13.1797 36.3906 13.625 35.543 14.2109 34.8477C14.7969 34.1445 15.5156 33.6133 16.3672 33.2539C17.2188 32.8867 18.1953 32.7031 19.2969 32.7031C20.6016 32.7031 21.6914 32.9297 22.5664 33.3828C23.4492 33.8281 24.1367 34.4453 24.6289 35.2344C25.1289 36.0234 25.4492 36.9219 25.5898 37.9297H23.3281C23.2266 37.3125 23.0234 36.75 22.7188 36.2422C22.4219 35.7344 21.9961 35.3281 21.4414 35.0234C20.8867 34.7109 20.1719 34.5547 19.2969 34.5547C18.5078 34.5547 17.8242 34.6992 17.2461 34.9883C16.668 35.2773 16.1914 35.6914 15.8164 36.2305C15.4414 36.7695 15.1602 37.4219 14.9727 38.1875C14.793 38.9531 14.7031 39.8164 14.7031 40.7773V42.125C14.7031 43.1094 14.8164 43.9883 15.043 44.7617C15.2773 45.5352 15.6094 46.1953 16.0391 46.7422C16.4688 47.2812 16.9805 47.6914 17.5742 47.9727C18.1758 48.2539 18.8398 48.3945 19.5664 48.3945C20.3711 48.3945 21.0234 48.3281 21.5234 48.1953C22.0234 48.0547 22.4141 47.8906 22.6953 47.7031C22.9766 47.5078 23.1914 47.3242 23.3398 47.1523V43.332H19.3906V41.5039H25.5898ZM42.4766 40.9297V42.0078C42.4766 43.2891 42.3164 44.4375 41.9961 45.4531C41.6758 46.4688 41.2148 47.332 40.6133 48.043C40.0117 48.7539 39.2891 49.2969 38.4453 49.6719C37.6094 50.0469 36.6719 50.2344 35.6328 50.2344C34.625 50.2344 33.6992 50.0469 32.8555 49.6719C32.0195 49.2969 31.293 48.7539 30.6758 48.043C30.0664 47.332 29.5938 46.4688 29.2578 45.4531C28.9219 44.4375 28.7539 43.2891 28.7539 42.0078V40.9297C28.7539 39.6484 28.918 38.5039 29.2461 37.4961C29.582 36.4805 30.0547 35.6172 30.6641 34.9062C31.2734 34.1875 31.9961 33.6406 32.832 33.2656C33.6758 32.8906 34.6016 32.7031 35.6094 32.7031C36.6484 32.7031 37.5859 32.8906 38.4219 33.2656C39.2656 33.6406 39.9883 34.1875 40.5898 34.9062C41.1992 35.6172 41.6641 36.4805 41.9844 37.4961C42.3125 38.5039 42.4766 39.6484 42.4766 40.9297ZM40.2383 42.0078V40.9062C40.2383 39.8906 40.1328 38.9922 39.9219 38.2109C39.7188 37.4297 39.418 36.7734 39.0195 36.2422C38.6211 35.7109 38.1328 35.3086 37.5547 35.0352C36.9844 34.7617 36.3359 34.625 35.6094 34.625C34.9062 34.625 34.2695 34.7617 33.6992 35.0352C33.1367 35.3086 32.6523 35.7109 32.2461 36.2422C31.8477 36.7734 31.5391 37.4297 31.3203 38.2109C31.1016 38.9922 30.9922 39.8906 30.9922 40.9062V42.0078C30.9922 43.0312 31.1016 43.9375 31.3203 44.7266C31.5391 45.5078 31.8516 46.168 32.2578 46.707C32.6719 47.2383 33.1602 47.6406 33.7227 47.9141C34.293 48.1875 34.9297 48.3242 35.6328 48.3242C36.3672 48.3242 37.0195 48.1875 37.5898 47.9141C38.1602 47.6406 38.6406 47.2383 39.0312 46.707C39.4297 46.168 39.7305 45.5078 39.9336 44.7266C40.1367 43.9375 40.2383 43.0312 40.2383 42.0078Z" fill="#111111"/>
</svg>
