<svg width="40" height="34" viewBox="0 0 40 34" fill="none" xmlns="http://www.w3.org/2000/svg">
<path d="M0.351562 16.8984C0.351562 13.8047 0.984375 11.0156 2.25 8.53125C3.5625 6.04688 5.46094 4.07813 7.94531 2.625C10.4297 1.125 13.4062 0.328125 16.875 0.234375V7.54688C13.9219 7.54688 11.7188 8.36719 10.2656 10.0078C8.85938 11.6484 8.15625 13.9453 8.15625 16.8984V18.5859H16.1719V33.4922H0.351562V16.8984ZM39.3047 7.54688C36.3516 7.54688 34.1484 8.36719 32.6953 10.0078C31.2891 11.6484 30.5859 13.9453 30.5859 16.8984V18.5859H38.6016V33.4922H22.7812V16.8984C22.7812 13.8047 23.4141 11.0156 24.6797 8.53125C25.9922 6.04688 27.8906 4.07813 30.375 2.625C32.8594 1.125 35.8359 0.328125 39.3047 0.234375V7.54688Z" fill="#2A2D2E"/>
</svg>
